<svg width="32" height="32" viewBox="0 0 32 32" fill="none" xmlns="http://www.w3.org/2000/svg">
<g clip-path="url(#clip0_2775_15357)">
<path d="M23.6946 27.0508L18.204 17.6642C17.8738 17.0552 17.7009 16.3735 17.7009 15.6808C17.7009 14.9882 17.8738 14.3064 18.204 13.6975L19.004 12.3762L23.0213 19.2508H27.8426C28.0549 19.2594 28.2631 19.3116 28.4543 19.4042C28.6455 19.4968 28.8155 19.6279 28.9538 19.7892C29.092 19.9504 29.1956 20.1385 29.2579 20.3416C29.3202 20.5447 29.34 20.7584 29.316 20.9695C29.308 21.3913 29.1355 21.7932 28.8354 22.0896C28.5352 22.386 28.1311 22.5535 27.7093 22.5562H24.896L26.6413 25.4668C26.6588 25.4668 26.6761 25.4703 26.6923 25.477C26.7085 25.4837 26.7232 25.4935 26.7356 25.5059C26.748 25.5183 26.7578 25.533 26.7645 25.5491C26.7712 25.5653 26.7746 25.5827 26.7746 25.6002C26.9545 26.006 26.9719 26.4655 26.823 26.8837C26.6742 27.302 26.3705 27.6472 25.9746 27.8482C25.7608 27.9524 25.5258 28.0058 25.288 28.0042C24.9612 28.0033 24.6407 27.9143 24.3602 27.7465C24.0798 27.5787 23.8499 27.3384 23.6946 27.0508ZM6.01597 27.5842C5.82228 27.4819 5.65269 27.3394 5.51855 27.1662C5.38441 26.993 5.28883 26.7932 5.2382 26.5801C5.18758 26.367 5.18307 26.1455 5.225 25.9305C5.26693 25.7155 5.35431 25.512 5.4813 25.3335L5.61464 25.2002C5.79076 24.8901 6.04314 24.6301 6.34788 24.4448C6.65261 24.2595 6.9996 24.1551 7.35597 24.1415H10.0333L8.42663 26.9188L8.2933 27.0522C8.16077 27.291 7.96368 27.4877 7.72458 27.6198C7.48548 27.7518 7.21403 27.8139 6.9413 27.7988C6.62021 27.7976 6.30367 27.7228 6.01597 27.5802V27.5842ZM4.27464 22.5562C3.84042 22.5225 3.43457 22.3274 3.13716 22.0092C2.83974 21.6911 2.67234 21.273 2.66797 20.8375C2.67596 20.4157 2.84842 20.0138 3.14857 19.7174C3.44872 19.421 3.8528 19.2535 4.27464 19.2508H9.23064L14.1853 10.7895L11.7746 6.55883C11.7393 6.55883 11.7054 6.54479 11.6804 6.51978C11.6553 6.49478 11.6413 6.46086 11.6413 6.4255C11.5206 6.23838 11.4417 6.02738 11.4101 5.80695C11.3786 5.58652 11.395 5.36186 11.4583 5.14837C11.5216 4.93488 11.6303 4.73759 11.777 4.57002C11.9236 4.40245 12.1048 4.26855 12.308 4.1775C12.5086 4.07351 12.7284 4.01156 12.9539 3.99544C13.1793 3.97932 13.4057 4.00938 13.6191 4.08377C13.8326 4.15816 14.0286 4.27531 14.1951 4.42807C14.3617 4.58083 14.4954 4.76597 14.588 4.97217L16.0613 7.48417L17.528 4.97217L17.6613 4.83883C17.8987 4.47366 18.2681 4.21431 18.6922 4.11493C19.1163 4.01555 19.5623 4.08383 19.9373 4.3055C20.1305 4.40795 20.2996 4.55044 20.4333 4.72345C20.5671 4.89646 20.6623 5.09601 20.7128 5.30877C20.7633 5.52154 20.7678 5.74263 20.726 5.95727C20.6843 6.17192 20.5972 6.37518 20.4706 6.5535L12.9813 19.2508H15.6586C16.1035 19.2501 16.5397 19.3735 16.9182 19.6072C17.2967 19.8409 17.6026 20.1755 17.8013 20.5735L19.0013 22.5562H4.27464Z" fill="#2E2F55"/>
</g>
<defs>
<clipPath id="clip0_2775_15357">
<rect width="32" height="32" fill="white"/>
</clipPath>
</defs>
</svg>
