<svg width="32" height="32" viewBox="0 0 32 32" fill="none" xmlns="http://www.w3.org/2000/svg">
<g clip-path="url(#clip0_2775_15365)">
<path d="M5.06667 30.5666L16.6667 17.2639L20.6667 21.9199L5.86667 30.5666C5.74283 30.6303 5.60593 30.6645 5.46667 30.6666C5.32737 30.6648 5.1904 30.6306 5.06667 30.5666ZM4 2.7639L15.6 15.9332L4 29.1039V2.7639ZM17.7333 15.9332L22.1333 11.1439L28.8 15.0026C28.9708 15.0486 29.119 15.1551 29.2172 15.3022C29.3153 15.4494 29.3566 15.6272 29.3333 15.8026V16.2026C29.3112 16.3677 29.2516 16.5256 29.1592 16.6643C29.0668 16.8029 28.9439 16.9186 28.8 17.0026L22.1333 20.8612L17.7333 15.9332ZM5.06667 1.43323C5.18983 1.36774 5.32718 1.3335 5.46667 1.3335C5.60615 1.3335 5.74351 1.36774 5.86667 1.43323L20.6667 10.2132L16.6667 14.7359L5.06667 1.43323Z" fill="#2E2F55"/>
</g>
<defs>
<clipPath id="clip0_2775_15365">
<rect width="32" height="32" fill="white"/>
</clipPath>
</defs>
</svg>
